<svg width="858" height="212" viewBox="0 0 858 212" fill="none" xmlns="http://www.w3.org/2000/svg">
<g filter="url(#filter0_d_6_92)">
<path d="M200.676 104.274C200.676 77.914 190.157 52.6337 171.434 33.9944C152.711 15.3551 127.317 4.8837 100.838 4.8837C74.3593 4.8837 48.9651 15.3551 30.2419 33.9944C11.5186 52.6337 1 77.914 1 104.274L100.838 104.274H200.676Z" fill="#ED7D2C"/>
</g>
<g filter="url(#filter1_d_6_92)">
<path d="M167.546 103.378C167.546 129.738 178.064 155.019 196.788 173.658C215.511 192.297 240.905 202.769 267.384 202.769C293.862 202.769 319.256 192.297 337.98 173.658C356.703 155.019 367.222 129.738 367.222 103.378L288.49 103.378C288.49 108.951 286.267 114.296 282.308 118.236C278.35 122.177 272.981 124.39 267.384 124.39C261.786 124.39 256.417 122.177 252.459 118.236C248.501 114.296 246.277 108.951 246.277 103.378L167.546 103.378Z" fill="#ED7D2C"/>
</g>
<g filter="url(#filter2_d_6_92)">
<path d="M494.369 104.274C494.369 130.634 504.888 155.914 523.611 174.553C542.334 193.193 567.729 203.664 594.207 203.664C620.686 203.664 646.08 193.193 664.803 174.553C683.527 155.914 694.045 130.634 694.045 104.274L615.314 104.274C615.314 109.847 613.09 115.191 609.132 119.132C605.174 123.072 599.805 125.286 594.207 125.286C588.609 125.286 583.241 123.072 579.283 119.132C575.324 115.191 573.101 109.847 573.101 104.274L494.369 104.274Z" fill="#ED7D2C"/>
</g>
<path d="M530.754 104.598C530.754 78.2379 520.236 52.9576 501.513 34.3184C482.789 15.6791 457.395 5.20764 430.917 5.20764C404.438 5.20764 379.044 15.6791 360.32 34.3184C341.597 52.9576 331.079 78.2379 331.079 104.598L409.81 104.598C409.81 99.0251 412.034 93.6806 415.992 89.7401C419.95 85.7996 425.319 83.5858 430.917 83.5858C436.514 83.5858 441.883 85.7996 445.841 89.7401C449.799 93.6806 452.023 99.0251 452.023 104.598L530.754 104.598Z" fill="#ED7D2C"/>
<path d="M857.026 105.257C857.026 78.8973 846.507 53.617 827.784 34.9777C809.061 16.3384 783.667 5.86699 757.188 5.86699C730.709 5.86699 705.315 16.3384 686.592 34.9777C667.869 53.617 657.35 78.8973 657.35 105.257L736.081 105.257C736.081 99.6845 738.305 94.34 742.263 90.3995C746.222 86.459 751.59 84.2452 757.188 84.2452C762.786 84.2452 768.154 86.459 772.113 90.3995C776.071 94.34 778.295 99.6845 778.295 105.257L857.026 105.257Z" fill="#ED7D2C"/>
<g filter="url(#filter3_d_6_92)">
<circle cx="102.629" cy="103.826" r="64.917" transform="rotate(-90 102.629 103.826)" fill="#2976B6"/>
</g>
<g filter="url(#filter4_d_6_92)">
<path d="M123.669 114.523V121.262C123.672 121.888 123.543 122.507 123.292 123.081C123.041 123.654 122.673 124.168 122.211 124.591C121.749 125.014 121.204 125.336 120.61 125.537C120.016 125.737 119.386 125.812 118.762 125.755C111.835 125.004 105.182 122.642 99.3356 118.858C93.8967 115.409 89.2855 110.807 85.8294 105.379C82.025 99.5181 79.6576 92.8452 78.9187 85.9011C78.8624 85.2798 78.9364 84.6537 79.1359 84.0625C79.3354 83.4714 79.656 82.9281 80.0774 82.4674C80.4988 82.0067 81.0117 81.6386 81.5834 81.3866C82.1552 81.1346 82.7732 81.0041 83.3982 81.0035H90.1514C91.2438 80.9928 92.3029 81.3789 93.1312 82.0898C93.9595 82.8007 94.5005 83.788 94.6534 84.8676C94.9385 87.0245 95.4671 89.1423 96.2292 91.1805C96.532 91.9846 96.5976 92.8585 96.418 93.6987C96.2385 94.5388 95.8214 95.31 95.2162 95.9208L92.3574 98.774C95.5619 104.398 100.228 109.055 105.864 112.253L108.722 109.4C109.334 108.796 110.107 108.38 110.949 108.201C111.791 108.022 112.666 108.087 113.472 108.389C115.514 109.15 117.636 109.677 119.798 109.962C120.891 110.116 121.89 110.666 122.604 111.506C123.317 112.347 123.697 113.421 123.669 114.523Z" stroke="white" stroke-width="4" stroke-linecap="round" stroke-linejoin="round"/>
</g>
<g filter="url(#filter5_d_6_92)">
<circle cx="265.593" cy="103.826" r="64.917" transform="rotate(-90 265.593 103.826)" fill="#2976B6"/>
</g>
<g filter="url(#filter6_d_6_92)">
<circle cx="592.76" cy="103.486" r="64.917" transform="rotate(-90 592.76 103.486)" fill="#2976B6"/>
</g>
<g filter="url(#filter7_d_6_92)">
<circle cx="429.469" cy="103.809" r="64.917" transform="rotate(-90 429.469 103.809)" fill="#2976B6"/>
</g>
<g filter="url(#filter8_d_6_92)">
<circle cx="756.636" cy="103.469" r="64.917" transform="rotate(-90 756.636 103.469)" fill="#2976B6"/>
</g>
<g filter="url(#filter9_d_6_92)">
<path d="M276.235 97.705L253.85 84.7962" stroke="white" stroke-width="4" stroke-linecap="round" stroke-linejoin="round"/>
<path d="M287.428 114.121V94.2228C287.427 93.3505 287.197 92.4937 286.761 91.7385C286.324 90.9832 285.697 90.3561 284.941 89.9199L267.53 79.9709C266.774 79.5343 265.916 79.3045 265.043 79.3045C264.17 79.3045 263.312 79.5343 262.556 79.9709L245.145 89.9199C244.39 90.3561 243.762 90.9832 243.326 91.7385C242.889 92.4937 242.659 93.3505 242.658 94.2228V114.121C242.659 114.993 242.889 115.85 243.326 116.605C243.762 117.36 244.39 117.988 245.145 118.424L262.556 128.373C263.312 128.809 264.17 129.039 265.043 129.039C265.916 129.039 266.774 128.809 267.53 128.373L284.941 118.424C285.697 117.988 286.324 117.36 286.761 116.605C287.197 115.85 287.427 114.993 287.428 114.121Z" stroke="white" stroke-width="4" stroke-linecap="round" stroke-linejoin="round"/>
<path d="M243.329 91.6361L265.043 104.197L286.757 91.6361" stroke="white" stroke-width="4" stroke-linecap="round" stroke-linejoin="round"/>
<path d="M265.043 129.243V104.172" stroke="white" stroke-width="4" stroke-linecap="round" stroke-linejoin="round"/>
</g>
<g filter="url(#filter10_d_6_92)">
<path d="M427.54 82.1319H411.965C410.784 82.1319 409.653 82.6007 408.818 83.4353C407.983 84.2698 407.515 85.4017 407.515 86.5819V117.732C407.515 118.912 407.983 120.044 408.818 120.879C409.653 121.713 410.784 122.182 411.965 122.182H443.115C444.295 122.182 445.427 121.713 446.262 120.879C447.096 120.044 447.565 118.912 447.565 117.732V102.157" stroke="white" stroke-width="4" stroke-linecap="round" stroke-linejoin="round"/>
<path d="M444.228 78.7943C445.113 77.9091 446.313 77.4118 447.565 77.4118C448.817 77.4118 450.018 77.9091 450.903 78.7943C451.788 79.6794 452.285 80.88 452.285 82.1318C452.285 83.3836 451.788 84.5842 450.903 85.4693L429.765 106.607L420.865 108.832L423.09 99.932L444.228 78.7943Z" stroke="white" stroke-width="4" stroke-linecap="round" stroke-linejoin="round"/>
</g>
<g filter="url(#filter11_d_6_92)">
<path d="M617.04 102.227V104.287C617.037 109.114 615.474 113.811 612.584 117.677C609.694 121.543 605.631 124.372 601.002 125.74C596.373 127.109 591.425 126.945 586.897 125.272C582.369 123.599 578.503 120.507 575.876 116.458C573.249 112.408 572.001 107.618 572.318 102.801C572.636 97.9842 574.502 93.3992 577.638 89.7297C580.775 86.0602 585.013 83.5029 589.722 82.439C594.43 81.3752 599.356 81.8619 603.766 83.8266" stroke="white" stroke-width="4" stroke-linecap="round" stroke-linejoin="round"/>
<path d="M617.04 86.3786L594.655 108.786L587.939 102.071" stroke="white" stroke-width="4" stroke-linecap="round" stroke-linejoin="round"/>
</g>
<g filter="url(#filter12_d_6_92)">
<path d="M732.1 86.8134V122.63L747.77 113.676L765.678 122.63L781.347 113.676V77.8594L765.678 86.8134L747.77 77.8594L732.1 86.8134Z" stroke="white" stroke-width="4" stroke-linecap="round" stroke-linejoin="round"/>
<path d="M747.769 77.8594V113.676" stroke="white" stroke-width="4" stroke-linecap="round" stroke-linejoin="round"/>
<path d="M765.678 86.8134V122.63" stroke="white" stroke-width="4" stroke-linecap="round" stroke-linejoin="round"/>
</g>
<defs>
<filter id="filter0_d_6_92" x="0" y="0.883698" width="207.676" height="107.39" filterUnits="userSpaceOnUse" color-interpolation-filters="sRGB">
<feFlood flood-opacity="0" result="BackgroundImageFix"/>
<feColorMatrix in="SourceAlpha" type="matrix" values="0 0 0 0 0 0 0 0 0 0 0 0 0 0 0 0 0 0 127 0" result="hardAlpha"/>
<feOffset dx="3"/>
<feGaussianBlur stdDeviation="2"/>
<feComposite in2="hardAlpha" operator="out"/>
<feColorMatrix type="matrix" values="0 0 0 0 0 0 0 0 0 0 0 0 0 0 0 0 0 0 0.25 0"/>
<feBlend mode="normal" in2="BackgroundImageFix" result="effect1_dropShadow_6_92"/>
<feBlend mode="normal" in="SourceGraphic" in2="effect1_dropShadow_6_92" result="shape"/>
</filter>
<filter id="filter1_d_6_92" x="163.546" y="103.378" width="207.676" height="107.39" filterUnits="userSpaceOnUse" color-interpolation-filters="sRGB">
<feFlood flood-opacity="0" result="BackgroundImageFix"/>
<feColorMatrix in="SourceAlpha" type="matrix" values="0 0 0 0 0 0 0 0 0 0 0 0 0 0 0 0 0 0 127 0" result="hardAlpha"/>
<feOffset dy="4"/>
<feGaussianBlur stdDeviation="2"/>
<feComposite in2="hardAlpha" operator="out"/>
<feColorMatrix type="matrix" values="0 0 0 0 0 0 0 0 0 0 0 0 0 0 0 0 0 0 0.25 0"/>
<feBlend mode="normal" in2="BackgroundImageFix" result="effect1_dropShadow_6_92"/>
<feBlend mode="normal" in="SourceGraphic" in2="effect1_dropShadow_6_92" result="shape"/>
</filter>
<filter id="filter2_d_6_92" x="490.369" y="104.274" width="207.676" height="107.39" filterUnits="userSpaceOnUse" color-interpolation-filters="sRGB">
<feFlood flood-opacity="0" result="BackgroundImageFix"/>
<feColorMatrix in="SourceAlpha" type="matrix" values="0 0 0 0 0 0 0 0 0 0 0 0 0 0 0 0 0 0 127 0" result="hardAlpha"/>
<feOffset dy="4"/>
<feGaussianBlur stdDeviation="2"/>
<feComposite in2="hardAlpha" operator="out"/>
<feColorMatrix type="matrix" values="0 0 0 0 0 0 0 0 0 0 0 0 0 0 0 0 0 0 0.25 0"/>
<feBlend mode="normal" in2="BackgroundImageFix" result="effect1_dropShadow_6_92"/>
<feBlend mode="normal" in="SourceGraphic" in2="effect1_dropShadow_6_92" result="shape"/>
</filter>
<filter id="filter3_d_6_92" x="33.7117" y="38.9091" width="137.834" height="137.834" filterUnits="userSpaceOnUse" color-interpolation-filters="sRGB">
<feFlood flood-opacity="0" result="BackgroundImageFix"/>
<feColorMatrix in="SourceAlpha" type="matrix" values="0 0 0 0 0 0 0 0 0 0 0 0 0 0 0 0 0 0 127 0" result="hardAlpha"/>
<feOffset dy="4"/>
<feGaussianBlur stdDeviation="2"/>
<feComposite in2="hardAlpha" operator="out"/>
<feColorMatrix type="matrix" values="0 0 0 0 0 0 0 0 0 0 0 0 0 0 0 0 0 0 0.25 0"/>
<feBlend mode="normal" in2="BackgroundImageFix" result="effect1_dropShadow_6_92"/>
<feBlend mode="normal" in="SourceGraphic" in2="effect1_dropShadow_6_92" result="shape"/>
</filter>
<filter id="filter4_d_6_92" x="72.9004" y="79.0033" width="56.7704" height="56.7704" filterUnits="userSpaceOnUse" color-interpolation-filters="sRGB">
<feFlood flood-opacity="0" result="BackgroundImageFix"/>
<feColorMatrix in="SourceAlpha" type="matrix" values="0 0 0 0 0 0 0 0 0 0 0 0 0 0 0 0 0 0 127 0" result="hardAlpha"/>
<feOffset dy="4"/>
<feGaussianBlur stdDeviation="2"/>
<feComposite in2="hardAlpha" operator="out"/>
<feColorMatrix type="matrix" values="0 0 0 0 0 0 0 0 0 0 0 0 0 0 0 0 0 0 0.25 0"/>
<feBlend mode="normal" in2="BackgroundImageFix" result="effect1_dropShadow_6_92"/>
<feBlend mode="normal" in="SourceGraphic" in2="effect1_dropShadow_6_92" result="shape"/>
</filter>
<filter id="filter5_d_6_92" x="196.676" y="38.9091" width="137.834" height="137.834" filterUnits="userSpaceOnUse" color-interpolation-filters="sRGB">
<feFlood flood-opacity="0" result="BackgroundImageFix"/>
<feColorMatrix in="SourceAlpha" type="matrix" values="0 0 0 0 0 0 0 0 0 0 0 0 0 0 0 0 0 0 127 0" result="hardAlpha"/>
<feOffset dy="4"/>
<feGaussianBlur stdDeviation="2"/>
<feComposite in2="hardAlpha" operator="out"/>
<feColorMatrix type="matrix" values="0 0 0 0 0 0 0 0 0 0 0 0 0 0 0 0 0 0 0.25 0"/>
<feBlend mode="normal" in2="BackgroundImageFix" result="effect1_dropShadow_6_92"/>
<feBlend mode="normal" in="SourceGraphic" in2="effect1_dropShadow_6_92" result="shape"/>
</filter>
<filter id="filter6_d_6_92" x="523.843" y="38.5685" width="137.834" height="137.834" filterUnits="userSpaceOnUse" color-interpolation-filters="sRGB">
<feFlood flood-opacity="0" result="BackgroundImageFix"/>
<feColorMatrix in="SourceAlpha" type="matrix" values="0 0 0 0 0 0 0 0 0 0 0 0 0 0 0 0 0 0 127 0" result="hardAlpha"/>
<feOffset dy="4"/>
<feGaussianBlur stdDeviation="2"/>
<feComposite in2="hardAlpha" operator="out"/>
<feColorMatrix type="matrix" values="0 0 0 0 0 0 0 0 0 0 0 0 0 0 0 0 0 0 0.25 0"/>
<feBlend mode="normal" in2="BackgroundImageFix" result="effect1_dropShadow_6_92"/>
<feBlend mode="normal" in="SourceGraphic" in2="effect1_dropShadow_6_92" result="shape"/>
</filter>
<filter id="filter7_d_6_92" x="360.552" y="38.8921" width="137.834" height="137.834" filterUnits="userSpaceOnUse" color-interpolation-filters="sRGB">
<feFlood flood-opacity="0" result="BackgroundImageFix"/>
<feColorMatrix in="SourceAlpha" type="matrix" values="0 0 0 0 0 0 0 0 0 0 0 0 0 0 0 0 0 0 127 0" result="hardAlpha"/>
<feOffset dy="4"/>
<feGaussianBlur stdDeviation="2"/>
<feComposite in2="hardAlpha" operator="out"/>
<feColorMatrix type="matrix" values="0 0 0 0 0 0 0 0 0 0 0 0 0 0 0 0 0 0 0.25 0"/>
<feBlend mode="normal" in2="BackgroundImageFix" result="effect1_dropShadow_6_92"/>
<feBlend mode="normal" in="SourceGraphic" in2="effect1_dropShadow_6_92" result="shape"/>
</filter>
<filter id="filter8_d_6_92" x="687.719" y="38.5518" width="137.834" height="137.834" filterUnits="userSpaceOnUse" color-interpolation-filters="sRGB">
<feFlood flood-opacity="0" result="BackgroundImageFix"/>
<feColorMatrix in="SourceAlpha" type="matrix" values="0 0 0 0 0 0 0 0 0 0 0 0 0 0 0 0 0 0 127 0" result="hardAlpha"/>
<feOffset dy="4"/>
<feGaussianBlur stdDeviation="2"/>
<feComposite in2="hardAlpha" operator="out"/>
<feColorMatrix type="matrix" values="0 0 0 0 0 0 0 0 0 0 0 0 0 0 0 0 0 0 0.25 0"/>
<feBlend mode="normal" in2="BackgroundImageFix" result="effect1_dropShadow_6_92"/>
<feBlend mode="normal" in="SourceGraphic" in2="effect1_dropShadow_6_92" result="shape"/>
</filter>
<filter id="filter9_d_6_92" x="236.658" y="77.3045" width="56.7704" height="61.9387" filterUnits="userSpaceOnUse" color-interpolation-filters="sRGB">
<feFlood flood-opacity="0" result="BackgroundImageFix"/>
<feColorMatrix in="SourceAlpha" type="matrix" values="0 0 0 0 0 0 0 0 0 0 0 0 0 0 0 0 0 0 127 0" result="hardAlpha"/>
<feOffset dy="4"/>
<feGaussianBlur stdDeviation="2"/>
<feComposite in2="hardAlpha" operator="out"/>
<feColorMatrix type="matrix" values="0 0 0 0 0 0 0 0 0 0 0 0 0 0 0 0 0 0 0.25 0"/>
<feBlend mode="normal" in2="BackgroundImageFix" result="effect1_dropShadow_6_92"/>
<feBlend mode="normal" in="SourceGraphic" in2="effect1_dropShadow_6_92" result="shape"/>
</filter>
<filter id="filter10_d_6_92" x="401.515" y="75.4118" width="56.7706" height="56.7704" filterUnits="userSpaceOnUse" color-interpolation-filters="sRGB">
<feFlood flood-opacity="0" result="BackgroundImageFix"/>
<feColorMatrix in="SourceAlpha" type="matrix" values="0 0 0 0 0 0 0 0 0 0 0 0 0 0 0 0 0 0 127 0" result="hardAlpha"/>
<feOffset dy="4"/>
<feGaussianBlur stdDeviation="2"/>
<feComposite in2="hardAlpha" operator="out"/>
<feColorMatrix type="matrix" values="0 0 0 0 0 0 0 0 0 0 0 0 0 0 0 0 0 0 0.25 0"/>
<feBlend mode="normal" in2="BackgroundImageFix" result="effect1_dropShadow_6_92"/>
<feBlend mode="normal" in="SourceGraphic" in2="effect1_dropShadow_6_92" result="shape"/>
</filter>
<filter id="filter11_d_6_92" x="566.27" y="79.8887" width="56.7704" height="56.7704" filterUnits="userSpaceOnUse" color-interpolation-filters="sRGB">
<feFlood flood-opacity="0" result="BackgroundImageFix"/>
<feColorMatrix in="SourceAlpha" type="matrix" values="0 0 0 0 0 0 0 0 0 0 0 0 0 0 0 0 0 0 127 0" result="hardAlpha"/>
<feOffset dy="4"/>
<feGaussianBlur stdDeviation="2"/>
<feComposite in2="hardAlpha" operator="out"/>
<feColorMatrix type="matrix" values="0 0 0 0 0 0 0 0 0 0 0 0 0 0 0 0 0 0 0.25 0"/>
<feBlend mode="normal" in2="BackgroundImageFix" result="effect1_dropShadow_6_92"/>
<feBlend mode="normal" in="SourceGraphic" in2="effect1_dropShadow_6_92" result="shape"/>
</filter>
<filter id="filter12_d_6_92" x="726.1" y="75.8594" width="61.2474" height="56.7704" filterUnits="userSpaceOnUse" color-interpolation-filters="sRGB">
<feFlood flood-opacity="0" result="BackgroundImageFix"/>
<feColorMatrix in="SourceAlpha" type="matrix" values="0 0 0 0 0 0 0 0 0 0 0 0 0 0 0 0 0 0 127 0" result="hardAlpha"/>
<feOffset dy="4"/>
<feGaussianBlur stdDeviation="2"/>
<feComposite in2="hardAlpha" operator="out"/>
<feColorMatrix type="matrix" values="0 0 0 0 0 0 0 0 0 0 0 0 0 0 0 0 0 0 0.25 0"/>
<feBlend mode="normal" in2="BackgroundImageFix" result="effect1_dropShadow_6_92"/>
<feBlend mode="normal" in="SourceGraphic" in2="effect1_dropShadow_6_92" result="shape"/>
</filter>
</defs>
</svg>
